<mxfile host="app.diagrams.net" modified="2023-05-03T18:49:23.464Z" agent="Mozilla/5.0 (Windows NT 10.0; Win64; x64) AppleWebKit/537.36 (KHTML, like Gecko) Chrome/112.0.0.0 Safari/537.36" etag="fCdXrUo0ELtLp7BZcEx-" version="21.2.7" type="device">
  <diagram id="R2lEEEUBdFMjLlhIrx00" name="Page-1">
    <mxGraphModel dx="447" dy="230" grid="1" gridSize="8" guides="1" tooltips="1" connect="1" arrows="1" fold="1" page="1" pageScale="1" pageWidth="4681" pageHeight="3300" math="0" shadow="0" extFonts="Permanent Marker^https://fonts.googleapis.com/css?family=Permanent+Marker">
      <root>
        <mxCell id="0" />
        <mxCell id="1" parent="0" />
        <mxCell id="nNDHWYNQJszgNGWnwx3n-1" value="" style="rounded=0;whiteSpace=wrap;html=1;" parent="1" vertex="1">
          <mxGeometry x="426" y="460" width="160" height="80" as="geometry" />
        </mxCell>
        <mxCell id="nNDHWYNQJszgNGWnwx3n-2" value="&lt;font style=&quot;font-size: 22px;&quot;&gt;Jogador&lt;/font&gt;" style="text;html=1;strokeColor=none;fillColor=none;align=center;verticalAlign=middle;whiteSpace=wrap;rounded=0;" parent="1" vertex="1">
          <mxGeometry x="466" y="480" width="80" height="40" as="geometry" />
        </mxCell>
        <mxCell id="nNDHWYNQJszgNGWnwx3n-3" value="&lt;u&gt;&lt;font style=&quot;font-size: 18px;&quot;&gt;id&lt;/font&gt;&lt;/u&gt;" style="ellipse;whiteSpace=wrap;html=1;" parent="1" vertex="1">
          <mxGeometry x="224" y="390" width="120" height="50" as="geometry" />
        </mxCell>
        <mxCell id="nNDHWYNQJszgNGWnwx3n-4" value="&lt;font style=&quot;font-size: 18px;&quot;&gt;email&lt;/font&gt;" style="ellipse;whiteSpace=wrap;html=1;" parent="1" vertex="1">
          <mxGeometry x="266" y="445" width="120" height="50" as="geometry" />
        </mxCell>
        <mxCell id="nNDHWYNQJszgNGWnwx3n-5" value="&lt;font style=&quot;font-size: 18px;&quot;&gt;username&lt;/font&gt;" style="ellipse;whiteSpace=wrap;html=1;" parent="1" vertex="1">
          <mxGeometry x="186" y="512" width="120" height="50" as="geometry" />
        </mxCell>
        <mxCell id="nNDHWYNQJszgNGWnwx3n-6" value="&lt;span style=&quot;font-size: 18px;&quot;&gt;estado&lt;/span&gt;" style="ellipse;whiteSpace=wrap;html=1;" parent="1" vertex="1">
          <mxGeometry x="576" y="400" width="120" height="50" as="geometry" />
        </mxCell>
        <mxCell id="nNDHWYNQJszgNGWnwx3n-7" value="" style="endArrow=none;html=1;rounded=0;exitX=1;exitY=0;exitDx=0;exitDy=0;" parent="1" source="nNDHWYNQJszgNGWnwx3n-1" target="nNDHWYNQJszgNGWnwx3n-6" edge="1">
          <mxGeometry width="50" height="50" relative="1" as="geometry">
            <mxPoint x="586" y="510" as="sourcePoint" />
            <mxPoint x="636" y="460" as="targetPoint" />
          </mxGeometry>
        </mxCell>
        <mxCell id="nNDHWYNQJszgNGWnwx3n-8" value="" style="endArrow=none;html=1;rounded=0;" parent="1" target="nNDHWYNQJszgNGWnwx3n-3" edge="1">
          <mxGeometry width="50" height="50" relative="1" as="geometry">
            <mxPoint x="456" y="460" as="sourcePoint" />
            <mxPoint x="536" y="420" as="targetPoint" />
          </mxGeometry>
        </mxCell>
        <mxCell id="nNDHWYNQJszgNGWnwx3n-9" value="" style="endArrow=none;html=1;rounded=0;entryX=-0.005;entryY=0.146;entryDx=0;entryDy=0;entryPerimeter=0;" parent="1" source="nNDHWYNQJszgNGWnwx3n-4" target="nNDHWYNQJszgNGWnwx3n-1" edge="1">
          <mxGeometry width="50" height="50" relative="1" as="geometry">
            <mxPoint x="456" y="480" as="sourcePoint" />
            <mxPoint x="506" y="430" as="targetPoint" />
          </mxGeometry>
        </mxCell>
        <mxCell id="nNDHWYNQJszgNGWnwx3n-10" value="" style="endArrow=none;html=1;rounded=0;entryX=0;entryY=0.75;entryDx=0;entryDy=0;" parent="1" source="nNDHWYNQJszgNGWnwx3n-5" target="nNDHWYNQJszgNGWnwx3n-1" edge="1">
          <mxGeometry width="50" height="50" relative="1" as="geometry">
            <mxPoint x="456" y="540" as="sourcePoint" />
            <mxPoint x="506" y="490" as="targetPoint" />
          </mxGeometry>
        </mxCell>
        <mxCell id="nNDHWYNQJszgNGWnwx3n-12" value="" style="rounded=0;whiteSpace=wrap;html=1;" parent="1" vertex="1">
          <mxGeometry x="636" y="774" width="160" height="80" as="geometry" />
        </mxCell>
        <mxCell id="nNDHWYNQJszgNGWnwx3n-13" value="&lt;font style=&quot;font-size: 22px;&quot;&gt;Regiao&lt;/font&gt;" style="text;html=1;strokeColor=none;fillColor=none;align=center;verticalAlign=middle;whiteSpace=wrap;rounded=0;" parent="1" vertex="1">
          <mxGeometry x="676" y="794" width="80" height="40" as="geometry" />
        </mxCell>
        <mxCell id="nNDHWYNQJszgNGWnwx3n-14" value="&lt;u&gt;&lt;font style=&quot;font-size: 18px;&quot;&gt;nome&lt;/font&gt;&lt;/u&gt;" style="ellipse;whiteSpace=wrap;html=1;" parent="1" vertex="1">
          <mxGeometry x="696" y="714" width="120" height="50" as="geometry" />
        </mxCell>
        <mxCell id="nNDHWYNQJszgNGWnwx3n-15" value="" style="endArrow=none;html=1;rounded=0;" parent="1" source="nNDHWYNQJszgNGWnwx3n-12" target="nNDHWYNQJszgNGWnwx3n-14" edge="1">
          <mxGeometry width="50" height="50" relative="1" as="geometry">
            <mxPoint x="596" y="754" as="sourcePoint" />
            <mxPoint x="646" y="704" as="targetPoint" />
          </mxGeometry>
        </mxCell>
        <mxCell id="nNDHWYNQJszgNGWnwx3n-20" value="N" style="text;html=1;strokeColor=none;fillColor=none;align=center;verticalAlign=middle;whiteSpace=wrap;rounded=0;" parent="1" vertex="1">
          <mxGeometry x="336" y="620" width="60" height="25" as="geometry" />
        </mxCell>
        <mxCell id="nNDHWYNQJszgNGWnwx3n-21" value="N" style="text;html=1;strokeColor=none;fillColor=none;align=center;verticalAlign=middle;whiteSpace=wrap;rounded=0;" parent="1" vertex="1">
          <mxGeometry x="376" y="620" width="60" height="25" as="geometry" />
        </mxCell>
        <mxCell id="nNDHWYNQJszgNGWnwx3n-25" value="" style="endArrow=none;html=1;rounded=0;entryX=0.12;entryY=0.989;entryDx=0;entryDy=0;entryPerimeter=0;" parent="1" target="nNDHWYNQJszgNGWnwx3n-1" edge="1">
          <mxGeometry width="50" height="50" relative="1" as="geometry">
            <mxPoint x="446" y="620" as="sourcePoint" />
            <mxPoint x="656" y="590" as="targetPoint" />
          </mxGeometry>
        </mxCell>
        <mxCell id="nNDHWYNQJszgNGWnwx3n-34" value="" style="endArrow=none;html=1;rounded=0;" parent="1" edge="1">
          <mxGeometry width="50" height="50" relative="1" as="geometry">
            <mxPoint x="386" y="530" as="sourcePoint" />
            <mxPoint x="426" y="530" as="targetPoint" />
          </mxGeometry>
        </mxCell>
        <mxCell id="nNDHWYNQJszgNGWnwx3n-35" value="" style="rhombus;whiteSpace=wrap;html=1;" parent="1" vertex="1">
          <mxGeometry x="366" y="597.5" width="40" height="45" as="geometry" />
        </mxCell>
        <mxCell id="nNDHWYNQJszgNGWnwx3n-36" value="" style="endArrow=none;html=1;rounded=0;" parent="1" edge="1">
          <mxGeometry width="50" height="50" relative="1" as="geometry">
            <mxPoint x="406" y="620" as="sourcePoint" />
            <mxPoint x="446" y="620" as="targetPoint" />
          </mxGeometry>
        </mxCell>
        <mxCell id="nNDHWYNQJszgNGWnwx3n-37" value="" style="endArrow=none;html=1;rounded=0;exitX=0.5;exitY=0;exitDx=0;exitDy=0;" parent="1" source="nNDHWYNQJszgNGWnwx3n-35" edge="1">
          <mxGeometry width="50" height="50" relative="1" as="geometry">
            <mxPoint x="406" y="620" as="sourcePoint" />
            <mxPoint x="386" y="530" as="targetPoint" />
          </mxGeometry>
        </mxCell>
        <mxCell id="nNDHWYNQJszgNGWnwx3n-38" value="" style="rhombus;whiteSpace=wrap;html=1;" parent="1" vertex="1">
          <mxGeometry x="536" y="791.5" width="40" height="45" as="geometry" />
        </mxCell>
        <mxCell id="nNDHWYNQJszgNGWnwx3n-40" value="1" style="text;html=1;strokeColor=none;fillColor=none;align=center;verticalAlign=middle;whiteSpace=wrap;rounded=0;" parent="1" vertex="1">
          <mxGeometry x="546" y="815" width="60" height="25" as="geometry" />
        </mxCell>
        <mxCell id="nNDHWYNQJszgNGWnwx3n-41" value="" style="endArrow=none;html=1;rounded=0;entryX=0;entryY=0.5;entryDx=0;entryDy=0;exitX=1;exitY=0.5;exitDx=0;exitDy=0;" parent="1" source="nNDHWYNQJszgNGWnwx3n-38" target="nNDHWYNQJszgNGWnwx3n-12" edge="1">
          <mxGeometry width="50" height="50" relative="1" as="geometry">
            <mxPoint x="526" y="814" as="sourcePoint" />
            <mxPoint x="576" y="764" as="targetPoint" />
          </mxGeometry>
        </mxCell>
        <mxCell id="nNDHWYNQJszgNGWnwx3n-42" value="" style="rounded=0;whiteSpace=wrap;html=1;" parent="1" vertex="1">
          <mxGeometry x="1146" y="460" width="160" height="80" as="geometry" />
        </mxCell>
        <mxCell id="nNDHWYNQJszgNGWnwx3n-43" value="&lt;font style=&quot;font-size: 22px;&quot;&gt;Jogo&lt;/font&gt;" style="text;html=1;strokeColor=none;fillColor=none;align=center;verticalAlign=middle;whiteSpace=wrap;rounded=0;" parent="1" vertex="1">
          <mxGeometry x="1186" y="480" width="80" height="40" as="geometry" />
        </mxCell>
        <mxCell id="nNDHWYNQJszgNGWnwx3n-45" value="" style="endArrow=none;html=1;rounded=0;exitX=1;exitY=0.5;exitDx=0;exitDy=0;entryX=0.5;entryY=0;entryDx=0;entryDy=0;" parent="1" source="nNDHWYNQJszgNGWnwx3n-1" target="hNQSx2w98ENypiFN29dy-17" edge="1">
          <mxGeometry width="50" height="50" relative="1" as="geometry">
            <mxPoint x="886" y="560" as="sourcePoint" />
            <mxPoint x="672" y="500" as="targetPoint" />
          </mxGeometry>
        </mxCell>
        <mxCell id="nNDHWYNQJszgNGWnwx3n-46" value="" style="endArrow=none;html=1;rounded=0;exitX=0;exitY=0.5;exitDx=0;exitDy=0;entryX=0.521;entryY=-0.1;entryDx=0;entryDy=0;entryPerimeter=0;" parent="1" source="nNDHWYNQJszgNGWnwx3n-42" target="hNQSx2w98ENypiFN29dy-14" edge="1">
          <mxGeometry width="50" height="50" relative="1" as="geometry">
            <mxPoint x="886" y="560" as="sourcePoint" />
            <mxPoint x="1104" y="500" as="targetPoint" />
          </mxGeometry>
        </mxCell>
        <mxCell id="nNDHWYNQJszgNGWnwx3n-49" value="&lt;u&gt;&lt;font style=&quot;font-size: 18px;&quot;&gt;id&lt;/font&gt;&lt;/u&gt;" style="ellipse;whiteSpace=wrap;html=1;" parent="1" vertex="1">
          <mxGeometry x="1076" y="390" width="120" height="50" as="geometry" />
        </mxCell>
        <mxCell id="nNDHWYNQJszgNGWnwx3n-50" value="&lt;span style=&quot;font-size: 18px;&quot;&gt;url&lt;/span&gt;" style="ellipse;whiteSpace=wrap;html=1;" parent="1" vertex="1">
          <mxGeometry x="1376" y="445" width="120" height="50" as="geometry" />
        </mxCell>
        <mxCell id="nNDHWYNQJszgNGWnwx3n-51" value="&lt;font style=&quot;font-size: 18px;&quot;&gt;nome&lt;/font&gt;" style="ellipse;whiteSpace=wrap;html=1;" parent="1" vertex="1">
          <mxGeometry x="1336" y="544" width="120" height="50" as="geometry" />
        </mxCell>
        <mxCell id="nNDHWYNQJszgNGWnwx3n-53" value="&lt;font style=&quot;font-size: 18px;&quot;&gt;image_url&lt;/font&gt;" style="ellipse;whiteSpace=wrap;html=1;" parent="1" vertex="1">
          <mxGeometry x="976" y="589" width="120" height="50" as="geometry" />
        </mxCell>
        <mxCell id="nNDHWYNQJszgNGWnwx3n-54" value="" style="endArrow=none;html=1;rounded=0;entryX=0.5;entryY=1;entryDx=0;entryDy=0;exitX=0.25;exitY=0;exitDx=0;exitDy=0;" parent="1" source="nNDHWYNQJszgNGWnwx3n-42" target="nNDHWYNQJszgNGWnwx3n-49" edge="1">
          <mxGeometry width="50" height="50" relative="1" as="geometry">
            <mxPoint x="1136" y="530" as="sourcePoint" />
            <mxPoint x="1186" y="480" as="targetPoint" />
          </mxGeometry>
        </mxCell>
        <mxCell id="nNDHWYNQJszgNGWnwx3n-55" value="" style="endArrow=none;html=1;rounded=0;exitX=1;exitY=0.25;exitDx=0;exitDy=0;" parent="1" source="nNDHWYNQJszgNGWnwx3n-42" target="nNDHWYNQJszgNGWnwx3n-50" edge="1">
          <mxGeometry width="50" height="50" relative="1" as="geometry">
            <mxPoint x="1306" y="510" as="sourcePoint" />
            <mxPoint x="1296" y="440" as="targetPoint" />
          </mxGeometry>
        </mxCell>
        <mxCell id="nNDHWYNQJszgNGWnwx3n-56" value="" style="endArrow=none;html=1;rounded=0;entryX=0.099;entryY=0.191;entryDx=0;entryDy=0;exitX=1;exitY=0.5;exitDx=0;exitDy=0;entryPerimeter=0;" parent="1" source="nNDHWYNQJszgNGWnwx3n-42" target="nNDHWYNQJszgNGWnwx3n-51" edge="1">
          <mxGeometry width="50" height="50" relative="1" as="geometry">
            <mxPoint x="1306" y="520" as="sourcePoint" />
            <mxPoint x="1356" y="470" as="targetPoint" />
          </mxGeometry>
        </mxCell>
        <mxCell id="nNDHWYNQJszgNGWnwx3n-59" value="" style="rounded=0;whiteSpace=wrap;html=1;" parent="1" vertex="1">
          <mxGeometry x="776" y="630" width="160" height="80" as="geometry" />
        </mxCell>
        <mxCell id="nNDHWYNQJszgNGWnwx3n-60" value="&lt;font style=&quot;font-size: 22px;&quot;&gt;Cracha&lt;/font&gt;" style="text;html=1;strokeColor=none;fillColor=none;align=center;verticalAlign=middle;whiteSpace=wrap;rounded=0;" parent="1" vertex="1">
          <mxGeometry x="816" y="650" width="80" height="40" as="geometry" />
        </mxCell>
        <mxCell id="nNDHWYNQJszgNGWnwx3n-61" value="&lt;u&gt;&lt;font style=&quot;font-size: 18px;&quot;&gt;id&lt;/font&gt;&lt;/u&gt;" style="ellipse;whiteSpace=wrap;html=1;" parent="1" vertex="1">
          <mxGeometry x="876" y="540" width="120" height="50" as="geometry" />
        </mxCell>
        <mxCell id="nNDHWYNQJszgNGWnwx3n-63" value="&lt;font style=&quot;font-size: 18px;&quot;&gt;nome&lt;/font&gt;" style="ellipse;whiteSpace=wrap;html=1;" parent="1" vertex="1">
          <mxGeometry x="966" y="714" width="120" height="50" as="geometry" />
        </mxCell>
        <mxCell id="nNDHWYNQJszgNGWnwx3n-64" value="" style="endArrow=none;html=1;rounded=0;entryX=0;entryY=1;entryDx=0;entryDy=0;" parent="1" target="nNDHWYNQJszgNGWnwx3n-61" edge="1">
          <mxGeometry width="50" height="50" relative="1" as="geometry">
            <mxPoint x="886" y="630" as="sourcePoint" />
            <mxPoint x="936" y="580" as="targetPoint" />
          </mxGeometry>
        </mxCell>
        <mxCell id="nNDHWYNQJszgNGWnwx3n-66" value="" style="endArrow=none;html=1;rounded=0;exitX=0;exitY=0;exitDx=0;exitDy=0;entryX=0.996;entryY=0.825;entryDx=0;entryDy=0;entryPerimeter=0;" parent="1" source="nNDHWYNQJszgNGWnwx3n-63" target="nNDHWYNQJszgNGWnwx3n-59" edge="1">
          <mxGeometry width="50" height="50" relative="1" as="geometry">
            <mxPoint x="916" y="740" as="sourcePoint" />
            <mxPoint x="966" y="690" as="targetPoint" />
          </mxGeometry>
        </mxCell>
        <mxCell id="nNDHWYNQJszgNGWnwx3n-67" value="" style="rhombus;whiteSpace=wrap;html=1;" parent="1" vertex="1">
          <mxGeometry x="832" y="544" width="40" height="45" as="geometry" />
        </mxCell>
        <mxCell id="nNDHWYNQJszgNGWnwx3n-68" value="N" style="text;html=1;strokeColor=none;fillColor=none;align=center;verticalAlign=middle;whiteSpace=wrap;rounded=0;" parent="1" vertex="1">
          <mxGeometry x="836" y="570.5" width="60" height="30" as="geometry" />
        </mxCell>
        <mxCell id="nNDHWYNQJszgNGWnwx3n-73" value="&lt;font style=&quot;font-size: 18px;&quot;&gt;preco&lt;/font&gt;" style="ellipse;whiteSpace=wrap;html=1;" parent="1" vertex="1">
          <mxGeometry x="971" y="355" width="120" height="50" as="geometry" />
        </mxCell>
        <mxCell id="nNDHWYNQJszgNGWnwx3n-75" value="&lt;font style=&quot;font-size: 18px;&quot;&gt;data_compra&lt;/font&gt;" style="ellipse;whiteSpace=wrap;html=1;" parent="1" vertex="1">
          <mxGeometry x="840" y="365" width="120" height="50" as="geometry" />
        </mxCell>
        <mxCell id="nNDHWYNQJszgNGWnwx3n-79" value="" style="rhombus;whiteSpace=wrap;html=1;" parent="1" vertex="1">
          <mxGeometry x="1166" y="645" width="40" height="45" as="geometry" />
        </mxCell>
        <mxCell id="nNDHWYNQJszgNGWnwx3n-83" value="" style="rounded=0;whiteSpace=wrap;html=1;" parent="1" vertex="1">
          <mxGeometry x="746" y="966" width="160" height="80" as="geometry" />
        </mxCell>
        <mxCell id="nNDHWYNQJszgNGWnwx3n-84" value="&lt;font style=&quot;font-size: 22px;&quot;&gt;Partida&lt;/font&gt;" style="text;html=1;strokeColor=none;fillColor=none;align=center;verticalAlign=middle;whiteSpace=wrap;rounded=0;" parent="1" vertex="1">
          <mxGeometry x="786" y="986" width="80" height="40" as="geometry" />
        </mxCell>
        <mxCell id="nNDHWYNQJszgNGWnwx3n-85" value="" style="rhombus;whiteSpace=wrap;html=1;" parent="1" vertex="1">
          <mxGeometry x="840" y="811.5" width="40" height="45" as="geometry" />
        </mxCell>
        <mxCell id="nNDHWYNQJszgNGWnwx3n-88" value="" style="shape=link;html=1;rounded=0;entryX=0.495;entryY=0.974;entryDx=0;entryDy=0;entryPerimeter=0;exitX=0.708;exitY=-0.009;exitDx=0;exitDy=0;exitPerimeter=0;" parent="1" source="nNDHWYNQJszgNGWnwx3n-83" target="nNDHWYNQJszgNGWnwx3n-85" edge="1">
          <mxGeometry width="100" relative="1" as="geometry">
            <mxPoint x="860" y="960" as="sourcePoint" />
            <mxPoint x="932" y="936" as="targetPoint" />
          </mxGeometry>
        </mxCell>
        <mxCell id="nNDHWYNQJszgNGWnwx3n-89" value="N" style="text;html=1;strokeColor=none;fillColor=none;align=center;verticalAlign=middle;whiteSpace=wrap;rounded=0;" parent="1" vertex="1">
          <mxGeometry x="816" y="840" width="60" height="30" as="geometry" />
        </mxCell>
        <mxCell id="nNDHWYNQJszgNGWnwx3n-91" value="1" style="text;html=1;strokeColor=none;fillColor=none;align=center;verticalAlign=middle;whiteSpace=wrap;rounded=0;" parent="1" vertex="1">
          <mxGeometry x="846" y="840" width="60" height="30" as="geometry" />
        </mxCell>
        <mxCell id="nNDHWYNQJszgNGWnwx3n-92" value="1" style="text;html=1;strokeColor=none;fillColor=none;align=center;verticalAlign=middle;whiteSpace=wrap;rounded=0;" parent="1" vertex="1">
          <mxGeometry x="1176" y="667.5" width="60" height="30" as="geometry" />
        </mxCell>
        <mxCell id="nNDHWYNQJszgNGWnwx3n-93" value="N" style="text;html=1;strokeColor=none;fillColor=none;align=center;verticalAlign=middle;whiteSpace=wrap;rounded=0;" parent="1" vertex="1">
          <mxGeometry x="1136" y="667.5" width="60" height="30" as="geometry" />
        </mxCell>
        <mxCell id="nNDHWYNQJszgNGWnwx3n-94" value="" style="rhombus;whiteSpace=wrap;html=1;" parent="1" vertex="1">
          <mxGeometry x="476" y="979.75" width="40" height="45" as="geometry" />
        </mxCell>
        <mxCell id="nNDHWYNQJszgNGWnwx3n-95" value="N" style="text;html=1;strokeColor=none;fillColor=none;align=center;verticalAlign=middle;whiteSpace=wrap;rounded=0;" parent="1" vertex="1">
          <mxGeometry x="446" y="1002.25" width="60" height="30" as="geometry" />
        </mxCell>
        <mxCell id="nNDHWYNQJszgNGWnwx3n-100" value="" style="endArrow=none;html=1;rounded=0;entryX=0.442;entryY=1.003;entryDx=0;entryDy=0;entryPerimeter=0;exitX=0.5;exitY=0;exitDx=0;exitDy=0;" parent="1" source="nNDHWYNQJszgNGWnwx3n-94" target="nNDHWYNQJszgNGWnwx3n-1" edge="1">
          <mxGeometry width="50" height="50" relative="1" as="geometry">
            <mxPoint x="496" y="960" as="sourcePoint" />
            <mxPoint x="496" y="544" as="targetPoint" />
          </mxGeometry>
        </mxCell>
        <mxCell id="nNDHWYNQJszgNGWnwx3n-101" value="N" style="text;html=1;strokeColor=none;fillColor=none;align=center;verticalAlign=middle;whiteSpace=wrap;rounded=0;" parent="1" vertex="1">
          <mxGeometry x="486" y="1002.25" width="60" height="30" as="geometry" />
        </mxCell>
        <mxCell id="nNDHWYNQJszgNGWnwx3n-102" value="&lt;font style=&quot;font-size: 18px;&quot;&gt;pontuacao&lt;/font&gt;" style="ellipse;whiteSpace=wrap;html=1;" parent="1" vertex="1">
          <mxGeometry x="546" y="900" width="120" height="50" as="geometry" />
        </mxCell>
        <mxCell id="nNDHWYNQJszgNGWnwx3n-105" value="&lt;u&gt;&lt;font style=&quot;font-size: 18px;&quot;&gt;id&lt;/font&gt;&lt;/u&gt;" style="ellipse;whiteSpace=wrap;html=1;" parent="1" vertex="1">
          <mxGeometry x="920" y="910" width="120" height="50" as="geometry" />
        </mxCell>
        <mxCell id="nNDHWYNQJszgNGWnwx3n-107" value="&lt;font style=&quot;font-size: 18px;&quot;&gt;data_ini&lt;/font&gt;" style="ellipse;whiteSpace=wrap;html=1;" parent="1" vertex="1">
          <mxGeometry x="928" y="1064" width="120" height="50" as="geometry" />
        </mxCell>
        <mxCell id="nNDHWYNQJszgNGWnwx3n-108" value="&lt;font style=&quot;font-size: 18px;&quot;&gt;data_fim&lt;/font&gt;" style="ellipse;whiteSpace=wrap;html=1;" parent="1" vertex="1">
          <mxGeometry x="676" y="1086" width="120" height="50" as="geometry" />
        </mxCell>
        <mxCell id="nNDHWYNQJszgNGWnwx3n-115" value="" style="endArrow=none;html=1;rounded=0;entryX=0.934;entryY=0.995;entryDx=0;entryDy=0;entryPerimeter=0;" parent="1" target="nNDHWYNQJszgNGWnwx3n-1" edge="1">
          <mxGeometry width="50" height="50" relative="1" as="geometry">
            <mxPoint x="576" y="568" as="sourcePoint" />
            <mxPoint x="786" y="664" as="targetPoint" />
          </mxGeometry>
        </mxCell>
        <mxCell id="nNDHWYNQJszgNGWnwx3n-116" value="" style="endArrow=none;html=1;rounded=0;entryX=0;entryY=0.5;entryDx=0;entryDy=0;" parent="1" target="nNDHWYNQJszgNGWnwx3n-67" edge="1">
          <mxGeometry width="50" height="50" relative="1" as="geometry">
            <mxPoint x="576" y="568" as="sourcePoint" />
            <mxPoint x="656" y="544" as="targetPoint" />
          </mxGeometry>
        </mxCell>
        <mxCell id="nNDHWYNQJszgNGWnwx3n-120" value="" style="endArrow=none;html=1;rounded=0;exitX=0.409;exitY=0.976;exitDx=0;exitDy=0;exitPerimeter=0;entryX=0.5;entryY=0;entryDx=0;entryDy=0;" parent="1" source="nNDHWYNQJszgNGWnwx3n-75" target="hNQSx2w98ENypiFN29dy-8" edge="1">
          <mxGeometry width="50" height="50" relative="1" as="geometry">
            <mxPoint x="912" y="360" as="sourcePoint" />
            <mxPoint x="896" y="384" as="targetPoint" />
          </mxGeometry>
        </mxCell>
        <mxCell id="nNDHWYNQJszgNGWnwx3n-122" value="" style="endArrow=none;html=1;rounded=0;exitX=0.328;exitY=0.981;exitDx=0;exitDy=0;exitPerimeter=0;entryX=0.836;entryY=0.005;entryDx=0;entryDy=0;entryPerimeter=0;" parent="1" source="nNDHWYNQJszgNGWnwx3n-73" target="hNQSx2w98ENypiFN29dy-8" edge="1">
          <mxGeometry width="50" height="50" relative="1" as="geometry">
            <mxPoint x="720" y="626" as="sourcePoint" />
            <mxPoint x="944" y="448" as="targetPoint" />
          </mxGeometry>
        </mxCell>
        <mxCell id="nNDHWYNQJszgNGWnwx3n-123" value="N" style="text;html=1;strokeColor=none;fillColor=none;align=center;verticalAlign=middle;whiteSpace=wrap;rounded=0;" parent="1" vertex="1">
          <mxGeometry x="802" y="570.5" width="64" height="27" as="geometry" />
        </mxCell>
        <mxCell id="nNDHWYNQJszgNGWnwx3n-124" value="N" style="text;html=1;strokeColor=none;fillColor=none;align=center;verticalAlign=middle;whiteSpace=wrap;rounded=0;" parent="1" vertex="1">
          <mxGeometry x="506" y="815" width="60" height="25" as="geometry" />
        </mxCell>
        <mxCell id="nNDHWYNQJszgNGWnwx3n-127" value="" style="shape=link;html=1;rounded=0;exitX=0.822;exitY=1.009;exitDx=0;exitDy=0;exitPerimeter=0;" parent="1" source="nNDHWYNQJszgNGWnwx3n-1" target="nNDHWYNQJszgNGWnwx3n-38" edge="1">
          <mxGeometry width="100" relative="1" as="geometry">
            <mxPoint x="568" y="712" as="sourcePoint" />
            <mxPoint x="668" y="712" as="targetPoint" />
          </mxGeometry>
        </mxCell>
        <mxCell id="nNDHWYNQJszgNGWnwx3n-131" value="" style="rhombus;whiteSpace=wrap;html=1;" parent="1" vertex="1">
          <mxGeometry x="746" y="889" width="40" height="45" as="geometry" />
        </mxCell>
        <mxCell id="nNDHWYNQJszgNGWnwx3n-132" value="" style="endArrow=none;html=1;rounded=0;exitX=0.5;exitY=0;exitDx=0;exitDy=0;entryX=0.817;entryY=1.01;entryDx=0;entryDy=0;entryPerimeter=0;" parent="1" source="nNDHWYNQJszgNGWnwx3n-131" target="nNDHWYNQJszgNGWnwx3n-12" edge="1">
          <mxGeometry width="50" height="50" relative="1" as="geometry">
            <mxPoint x="776" y="858" as="sourcePoint" />
            <mxPoint x="768" y="856" as="targetPoint" />
          </mxGeometry>
        </mxCell>
        <mxCell id="nNDHWYNQJszgNGWnwx3n-134" value="" style="shape=link;html=1;rounded=0;exitX=0.13;exitY=-0.007;exitDx=0;exitDy=0;exitPerimeter=0;entryX=0.508;entryY=0.942;entryDx=0;entryDy=0;entryPerimeter=0;" parent="1" source="nNDHWYNQJszgNGWnwx3n-83" target="nNDHWYNQJszgNGWnwx3n-131" edge="1">
          <mxGeometry width="100" relative="1" as="geometry">
            <mxPoint x="768" y="920" as="sourcePoint" />
            <mxPoint x="868" y="920" as="targetPoint" />
          </mxGeometry>
        </mxCell>
        <mxCell id="nNDHWYNQJszgNGWnwx3n-135" value="N" style="text;html=1;strokeColor=none;fillColor=none;align=center;verticalAlign=middle;whiteSpace=wrap;rounded=0;" parent="1" vertex="1">
          <mxGeometry x="726" y="920" width="60" height="30" as="geometry" />
        </mxCell>
        <mxCell id="nNDHWYNQJszgNGWnwx3n-136" value="1" style="text;html=1;strokeColor=none;fillColor=none;align=center;verticalAlign=middle;whiteSpace=wrap;rounded=0;" parent="1" vertex="1">
          <mxGeometry x="726" y="870" width="60" height="30" as="geometry" />
        </mxCell>
        <mxCell id="nNDHWYNQJszgNGWnwx3n-137" value="" style="endArrow=none;html=1;rounded=0;entryX=0;entryY=1;entryDx=0;entryDy=0;exitX=0.941;exitY=0.009;exitDx=0;exitDy=0;exitPerimeter=0;" parent="1" source="nNDHWYNQJszgNGWnwx3n-83" target="nNDHWYNQJszgNGWnwx3n-105" edge="1">
          <mxGeometry width="50" height="50" relative="1" as="geometry">
            <mxPoint x="784" y="978" as="sourcePoint" />
            <mxPoint x="834" y="928" as="targetPoint" />
          </mxGeometry>
        </mxCell>
        <mxCell id="nNDHWYNQJszgNGWnwx3n-139" value="" style="endArrow=none;html=1;rounded=0;exitX=1;exitY=1;exitDx=0;exitDy=0;entryX=0.008;entryY=0.417;entryDx=0;entryDy=0;entryPerimeter=0;" parent="1" source="nNDHWYNQJszgNGWnwx3n-83" target="nNDHWYNQJszgNGWnwx3n-107" edge="1">
          <mxGeometry width="50" height="50" relative="1" as="geometry">
            <mxPoint x="944" y="1010" as="sourcePoint" />
            <mxPoint x="994" y="960" as="targetPoint" />
          </mxGeometry>
        </mxCell>
        <mxCell id="nNDHWYNQJszgNGWnwx3n-140" value="" style="endArrow=none;html=1;rounded=0;exitX=0.25;exitY=1;exitDx=0;exitDy=0;entryX=0.441;entryY=0.037;entryDx=0;entryDy=0;entryPerimeter=0;" parent="1" source="nNDHWYNQJszgNGWnwx3n-83" target="nNDHWYNQJszgNGWnwx3n-108" edge="1">
          <mxGeometry width="50" height="50" relative="1" as="geometry">
            <mxPoint x="920" y="1066" as="sourcePoint" />
            <mxPoint x="970" y="1016" as="targetPoint" />
          </mxGeometry>
        </mxCell>
        <mxCell id="nNDHWYNQJszgNGWnwx3n-142" value="" style="ellipse;whiteSpace=wrap;html=1;" parent="1" vertex="1">
          <mxGeometry x="1096" y="988" width="60" height="40.5" as="geometry" />
        </mxCell>
        <mxCell id="nNDHWYNQJszgNGWnwx3n-143" value="" style="shape=link;html=1;rounded=0;exitX=1.005;exitY=0.533;exitDx=0;exitDy=0;exitPerimeter=0;entryX=0;entryY=0.5;entryDx=0;entryDy=0;" parent="1" source="nNDHWYNQJszgNGWnwx3n-83" target="nNDHWYNQJszgNGWnwx3n-142" edge="1">
          <mxGeometry width="100" relative="1" as="geometry">
            <mxPoint x="920" y="1008" as="sourcePoint" />
            <mxPoint x="1020" y="1008" as="targetPoint" />
          </mxGeometry>
        </mxCell>
        <mxCell id="nNDHWYNQJszgNGWnwx3n-144" value="d" style="text;html=1;strokeColor=none;fillColor=none;align=center;verticalAlign=middle;whiteSpace=wrap;rounded=0;" parent="1" vertex="1">
          <mxGeometry x="1096" y="991" width="60" height="30" as="geometry" />
        </mxCell>
        <mxCell id="nNDHWYNQJszgNGWnwx3n-146" value="" style="endArrow=none;html=1;rounded=0;exitX=1;exitY=0.75;exitDx=0;exitDy=0;entryX=0;entryY=0.25;entryDx=0;entryDy=0;" parent="1" source="nNDHWYNQJszgNGWnwx3n-144" target="nNDHWYNQJszgNGWnwx3n-163" edge="1">
          <mxGeometry width="50" height="50" relative="1" as="geometry">
            <mxPoint x="1080" y="978" as="sourcePoint" />
            <mxPoint x="1224" y="1040" as="targetPoint" />
          </mxGeometry>
        </mxCell>
        <mxCell id="nNDHWYNQJszgNGWnwx3n-150" value="" style="endArrow=none;html=1;rounded=0;exitX=0.75;exitY=0;exitDx=0;exitDy=0;entryX=-0.004;entryY=0.429;entryDx=0;entryDy=0;entryPerimeter=0;" parent="1" source="nNDHWYNQJszgNGWnwx3n-144" target="nNDHWYNQJszgNGWnwx3n-160" edge="1">
          <mxGeometry width="50" height="50" relative="1" as="geometry">
            <mxPoint x="1141" y="991" as="sourcePoint" />
            <mxPoint x="1224" y="968" as="targetPoint" />
          </mxGeometry>
        </mxCell>
        <mxCell id="nNDHWYNQJszgNGWnwx3n-156" value="" style="curved=1;endArrow=none;html=1;rounded=0;endFill=0;" parent="1" edge="1">
          <mxGeometry width="50" height="50" relative="1" as="geometry">
            <mxPoint x="1176" y="992" as="sourcePoint" />
            <mxPoint x="1168" y="976" as="targetPoint" />
            <Array as="points">
              <mxPoint x="1184" y="984" />
              <mxPoint x="1176" y="968" />
            </Array>
          </mxGeometry>
        </mxCell>
        <mxCell id="nNDHWYNQJszgNGWnwx3n-157" value="" style="curved=1;endArrow=none;html=1;rounded=0;endFill=0;" parent="1" edge="1">
          <mxGeometry width="50" height="50" relative="1" as="geometry">
            <mxPoint x="1168" y="1026" as="sourcePoint" />
            <mxPoint x="1168" y="1008" as="targetPoint" />
            <Array as="points">
              <mxPoint x="1184" y="1018" />
            </Array>
          </mxGeometry>
        </mxCell>
        <mxCell id="nNDHWYNQJszgNGWnwx3n-160" value="" style="rounded=0;whiteSpace=wrap;html=1;" parent="1" vertex="1">
          <mxGeometry x="1246" y="926" width="160" height="80" as="geometry" />
        </mxCell>
        <mxCell id="nNDHWYNQJszgNGWnwx3n-161" value="&lt;font style=&quot;font-size: 22px;&quot;&gt;Multi_jogador&lt;/font&gt;" style="text;html=1;strokeColor=none;fillColor=none;align=center;verticalAlign=middle;whiteSpace=wrap;rounded=0;" parent="1" vertex="1">
          <mxGeometry x="1286" y="943.5" width="80" height="40" as="geometry" />
        </mxCell>
        <mxCell id="nNDHWYNQJszgNGWnwx3n-163" value="" style="rounded=0;whiteSpace=wrap;html=1;" parent="1" vertex="1">
          <mxGeometry x="1246" y="1028.5" width="160" height="80" as="geometry" />
        </mxCell>
        <mxCell id="nNDHWYNQJszgNGWnwx3n-164" value="&lt;font style=&quot;font-size: 22px;&quot;&gt;Um_jogador&lt;/font&gt;" style="text;html=1;strokeColor=none;fillColor=none;align=center;verticalAlign=middle;whiteSpace=wrap;rounded=0;" parent="1" vertex="1">
          <mxGeometry x="1286" y="1046" width="80" height="40" as="geometry" />
        </mxCell>
        <mxCell id="nNDHWYNQJszgNGWnwx3n-167" value="&lt;font style=&quot;font-size: 18px;&quot;&gt;estado&lt;/font&gt;" style="ellipse;whiteSpace=wrap;html=1;" parent="1" vertex="1">
          <mxGeometry x="1376" y="848" width="120" height="50" as="geometry" />
        </mxCell>
        <mxCell id="nNDHWYNQJszgNGWnwx3n-168" value="" style="endArrow=none;html=1;rounded=0;exitX=0.75;exitY=0;exitDx=0;exitDy=0;entryX=0.468;entryY=1.013;entryDx=0;entryDy=0;entryPerimeter=0;" parent="1" source="nNDHWYNQJszgNGWnwx3n-160" target="nNDHWYNQJszgNGWnwx3n-167" edge="1">
          <mxGeometry width="50" height="50" relative="1" as="geometry">
            <mxPoint x="1416" y="946" as="sourcePoint" />
            <mxPoint x="1466" y="896" as="targetPoint" />
          </mxGeometry>
        </mxCell>
        <mxCell id="nNDHWYNQJszgNGWnwx3n-169" value="&lt;font style=&quot;font-size: 18px;&quot;&gt;dificuldade&lt;/font&gt;" style="ellipse;whiteSpace=wrap;html=1;" parent="1" vertex="1">
          <mxGeometry x="1432" y="1104" width="120" height="50" as="geometry" />
        </mxCell>
        <mxCell id="nNDHWYNQJszgNGWnwx3n-170" value="" style="endArrow=none;html=1;rounded=0;exitX=1;exitY=0.75;exitDx=0;exitDy=0;entryX=0;entryY=0;entryDx=0;entryDy=0;" parent="1" source="nNDHWYNQJszgNGWnwx3n-163" target="nNDHWYNQJszgNGWnwx3n-169" edge="1">
          <mxGeometry width="50" height="50" relative="1" as="geometry">
            <mxPoint x="1288" y="954" as="sourcePoint" />
            <mxPoint x="1338" y="904" as="targetPoint" />
          </mxGeometry>
        </mxCell>
        <mxCell id="nNDHWYNQJszgNGWnwx3n-171" value="" style="rhombus;whiteSpace=wrap;html=1;" parent="1" vertex="1">
          <mxGeometry x="819.14" y="231" width="40" height="45" as="geometry" />
        </mxCell>
        <mxCell id="nNDHWYNQJszgNGWnwx3n-172" value="N" style="text;html=1;strokeColor=none;fillColor=none;align=center;verticalAlign=middle;whiteSpace=wrap;rounded=0;" parent="1" vertex="1">
          <mxGeometry x="830" y="266" width="60" height="30" as="geometry" />
        </mxCell>
        <mxCell id="nNDHWYNQJszgNGWnwx3n-175" value="N" style="text;html=1;strokeColor=none;fillColor=none;align=center;verticalAlign=middle;whiteSpace=wrap;rounded=0;" parent="1" vertex="1">
          <mxGeometry x="792" y="266" width="60" height="30" as="geometry" />
        </mxCell>
        <mxCell id="nNDHWYNQJszgNGWnwx3n-177" value="&lt;font style=&quot;font-size: 18px;&quot;&gt;num_jogos&lt;/font&gt;" style="ellipse;whiteSpace=wrap;html=1;" parent="1" vertex="1">
          <mxGeometry x="920" y="170" width="120" height="50" as="geometry" />
        </mxCell>
        <mxCell id="nNDHWYNQJszgNGWnwx3n-178" value="" style="endArrow=none;html=1;rounded=0;entryX=1;entryY=0;entryDx=0;entryDy=0;exitX=0;exitY=1;exitDx=0;exitDy=0;" parent="1" source="nNDHWYNQJszgNGWnwx3n-177" target="nNDHWYNQJszgNGWnwx3n-171" edge="1">
          <mxGeometry width="50" height="50" relative="1" as="geometry">
            <mxPoint x="812.86" y="331.1" as="sourcePoint" />
            <mxPoint x="909.14" y="322.5" as="targetPoint" />
          </mxGeometry>
        </mxCell>
        <mxCell id="nNDHWYNQJszgNGWnwx3n-180" value="" style="rounded=0;whiteSpace=wrap;html=1;" parent="1" vertex="1">
          <mxGeometry x="266" y="216" width="160" height="80" as="geometry" />
        </mxCell>
        <mxCell id="nNDHWYNQJszgNGWnwx3n-181" value="&lt;font style=&quot;font-size: 22px;&quot;&gt;Conversa&lt;/font&gt;" style="text;html=1;strokeColor=none;fillColor=none;align=center;verticalAlign=middle;whiteSpace=wrap;rounded=0;" parent="1" vertex="1">
          <mxGeometry x="306" y="236" width="80" height="40" as="geometry" />
        </mxCell>
        <mxCell id="nNDHWYNQJszgNGWnwx3n-183" value="" style="rhombus;whiteSpace=wrap;html=1;" parent="1" vertex="1">
          <mxGeometry x="446" y="370" width="40" height="45" as="geometry" />
        </mxCell>
        <mxCell id="nNDHWYNQJszgNGWnwx3n-184" value="N" style="text;html=1;strokeColor=none;fillColor=none;align=center;verticalAlign=middle;whiteSpace=wrap;rounded=0;" parent="1" vertex="1">
          <mxGeometry x="416" y="400" width="60" height="30" as="geometry" />
        </mxCell>
        <mxCell id="nNDHWYNQJszgNGWnwx3n-185" value="N" style="text;html=1;strokeColor=none;fillColor=none;align=center;verticalAlign=middle;whiteSpace=wrap;rounded=0;" parent="1" vertex="1">
          <mxGeometry x="416" y="360" width="60" height="30" as="geometry" />
        </mxCell>
        <mxCell id="nNDHWYNQJszgNGWnwx3n-189" value="" style="endArrow=none;html=1;rounded=0;entryX=0.5;entryY=1;entryDx=0;entryDy=0;exitX=0.25;exitY=0;exitDx=0;exitDy=0;" parent="1" source="nNDHWYNQJszgNGWnwx3n-1" target="nNDHWYNQJszgNGWnwx3n-183" edge="1">
          <mxGeometry width="50" height="50" relative="1" as="geometry">
            <mxPoint x="504" y="474" as="sourcePoint" />
            <mxPoint x="554" y="424" as="targetPoint" />
          </mxGeometry>
        </mxCell>
        <mxCell id="nNDHWYNQJszgNGWnwx3n-190" value="" style="rounded=0;whiteSpace=wrap;html=1;" parent="1" vertex="1">
          <mxGeometry x="602" y="216" width="160" height="80" as="geometry" />
        </mxCell>
        <mxCell id="nNDHWYNQJszgNGWnwx3n-191" value="&lt;font style=&quot;font-size: 22px;&quot;&gt;Mensagem&lt;/font&gt;" style="text;html=1;strokeColor=none;fillColor=none;align=center;verticalAlign=middle;whiteSpace=wrap;rounded=0;" parent="1" vertex="1">
          <mxGeometry x="642" y="236" width="80" height="40" as="geometry" />
        </mxCell>
        <mxCell id="nNDHWYNQJszgNGWnwx3n-192" value="" style="rhombus;whiteSpace=wrap;html=1;" parent="1" vertex="1">
          <mxGeometry x="506" y="233.5" width="40" height="45" as="geometry" />
        </mxCell>
        <mxCell id="nNDHWYNQJszgNGWnwx3n-202" value="1" style="text;html=1;strokeColor=none;fillColor=none;align=center;verticalAlign=middle;whiteSpace=wrap;rounded=0;" parent="1" vertex="1">
          <mxGeometry x="476" y="256" width="60" height="30" as="geometry" />
        </mxCell>
        <mxCell id="nNDHWYNQJszgNGWnwx3n-203" value="N" style="text;html=1;strokeColor=none;fillColor=none;align=center;verticalAlign=middle;whiteSpace=wrap;rounded=0;" parent="1" vertex="1">
          <mxGeometry x="516" y="256" width="60" height="30" as="geometry" />
        </mxCell>
        <mxCell id="nNDHWYNQJszgNGWnwx3n-205" value="" style="endArrow=none;html=1;rounded=0;exitX=0.78;exitY=0.006;exitDx=0;exitDy=0;exitPerimeter=0;" parent="1" source="nNDHWYNQJszgNGWnwx3n-1" edge="1">
          <mxGeometry width="50" height="50" relative="1" as="geometry">
            <mxPoint x="552" y="456" as="sourcePoint" />
            <mxPoint x="551" y="416" as="targetPoint" />
          </mxGeometry>
        </mxCell>
        <mxCell id="nNDHWYNQJszgNGWnwx3n-206" value="" style="rhombus;whiteSpace=wrap;html=1;" parent="1" vertex="1">
          <mxGeometry x="531" y="370" width="40" height="45" as="geometry" />
        </mxCell>
        <mxCell id="nNDHWYNQJszgNGWnwx3n-207" value="N" style="text;html=1;strokeColor=none;fillColor=none;align=center;verticalAlign=middle;whiteSpace=wrap;rounded=0;" parent="1" vertex="1">
          <mxGeometry x="542" y="360" width="60" height="30" as="geometry" />
        </mxCell>
        <mxCell id="nNDHWYNQJszgNGWnwx3n-217" value="" style="shape=link;html=1;rounded=0;exitX=1;exitY=0.5;exitDx=0;exitDy=0;entryX=0;entryY=0.5;entryDx=0;entryDy=0;" parent="1" source="nNDHWYNQJszgNGWnwx3n-192" target="nNDHWYNQJszgNGWnwx3n-190" edge="1">
          <mxGeometry width="100" relative="1" as="geometry">
            <mxPoint x="568" y="400" as="sourcePoint" />
            <mxPoint x="668" y="400" as="targetPoint" />
          </mxGeometry>
        </mxCell>
        <mxCell id="nNDHWYNQJszgNGWnwx3n-224" value="" style="shape=link;html=1;rounded=0;edgeStyle=orthogonalEdgeStyle;entryX=0.5;entryY=1;entryDx=0;entryDy=0;exitX=1;exitY=0.5;exitDx=0;exitDy=0;" parent="1" source="nNDHWYNQJszgNGWnwx3n-206" target="nNDHWYNQJszgNGWnwx3n-190" edge="1">
          <mxGeometry width="100" relative="1" as="geometry">
            <mxPoint x="576" y="392" as="sourcePoint" />
            <mxPoint x="684" y="360" as="targetPoint" />
            <Array as="points">
              <mxPoint x="584" y="392" />
              <mxPoint x="682" y="392" />
            </Array>
          </mxGeometry>
        </mxCell>
        <mxCell id="nNDHWYNQJszgNGWnwx3n-225" value="1" style="text;html=1;strokeColor=none;fillColor=none;align=center;verticalAlign=middle;whiteSpace=wrap;rounded=0;" parent="1" vertex="1">
          <mxGeometry x="542" y="392" width="60" height="30" as="geometry" />
        </mxCell>
        <mxCell id="nNDHWYNQJszgNGWnwx3n-226" value="&lt;u&gt;&lt;font style=&quot;font-size: 18px;&quot;&gt;id&lt;/font&gt;&lt;/u&gt;" style="ellipse;whiteSpace=wrap;html=1;" parent="1" vertex="1">
          <mxGeometry x="114" y="186" width="120" height="50" as="geometry" />
        </mxCell>
        <mxCell id="nNDHWYNQJszgNGWnwx3n-227" value="&lt;span style=&quot;font-size: 18px;&quot;&gt;nome&lt;/span&gt;" style="ellipse;whiteSpace=wrap;html=1;" parent="1" vertex="1">
          <mxGeometry x="258" y="120" width="120" height="50" as="geometry" />
        </mxCell>
        <mxCell id="nNDHWYNQJszgNGWnwx3n-228" value="" style="endArrow=none;html=1;rounded=0;exitX=1;exitY=1;exitDx=0;exitDy=0;entryX=0;entryY=0.25;entryDx=0;entryDy=0;" parent="1" source="nNDHWYNQJszgNGWnwx3n-226" target="nNDHWYNQJszgNGWnwx3n-180" edge="1">
          <mxGeometry width="50" height="50" relative="1" as="geometry">
            <mxPoint x="402" y="314" as="sourcePoint" />
            <mxPoint x="452" y="264" as="targetPoint" />
          </mxGeometry>
        </mxCell>
        <mxCell id="nNDHWYNQJszgNGWnwx3n-229" value="" style="endArrow=none;html=1;rounded=0;entryX=0.5;entryY=1;entryDx=0;entryDy=0;" parent="1" target="nNDHWYNQJszgNGWnwx3n-227" edge="1">
          <mxGeometry width="50" height="50" relative="1" as="geometry">
            <mxPoint x="330" y="216" as="sourcePoint" />
            <mxPoint x="396" y="216" as="targetPoint" />
          </mxGeometry>
        </mxCell>
        <mxCell id="nNDHWYNQJszgNGWnwx3n-230" value="&lt;span style=&quot;font-size: 18px;&quot;&gt;&lt;u style=&quot;&quot;&gt;id&lt;/u&gt;&lt;/span&gt;" style="ellipse;whiteSpace=wrap;html=1;" parent="1" vertex="1">
          <mxGeometry x="506" y="128" width="120" height="50" as="geometry" />
        </mxCell>
        <mxCell id="nNDHWYNQJszgNGWnwx3n-232" value="&lt;span style=&quot;font-size: 18px;&quot;&gt;data_msg&lt;/span&gt;" style="ellipse;whiteSpace=wrap;html=1;" parent="1" vertex="1">
          <mxGeometry x="648" y="128" width="120" height="50" as="geometry" />
        </mxCell>
        <mxCell id="nNDHWYNQJszgNGWnwx3n-233" value="&lt;span style=&quot;font-size: 18px;&quot;&gt;texto_msg&lt;/span&gt;" style="ellipse;whiteSpace=wrap;html=1;" parent="1" vertex="1">
          <mxGeometry x="786" y="156" width="120" height="50" as="geometry" />
        </mxCell>
        <mxCell id="nNDHWYNQJszgNGWnwx3n-234" value="" style="endArrow=none;html=1;rounded=0;exitX=0.5;exitY=1;exitDx=0;exitDy=0;entryX=0.25;entryY=0;entryDx=0;entryDy=0;" parent="1" source="nNDHWYNQJszgNGWnwx3n-230" target="nNDHWYNQJszgNGWnwx3n-190" edge="1">
          <mxGeometry width="50" height="50" relative="1" as="geometry">
            <mxPoint x="672" y="314" as="sourcePoint" />
            <mxPoint x="722" y="264" as="targetPoint" />
          </mxGeometry>
        </mxCell>
        <mxCell id="nNDHWYNQJszgNGWnwx3n-236" value="" style="endArrow=none;html=1;rounded=0;entryX=0;entryY=1;entryDx=0;entryDy=0;exitX=0.75;exitY=0;exitDx=0;exitDy=0;" parent="1" source="nNDHWYNQJszgNGWnwx3n-190" target="nNDHWYNQJszgNGWnwx3n-232" edge="1">
          <mxGeometry width="50" height="50" relative="1" as="geometry">
            <mxPoint x="712" y="274" as="sourcePoint" />
            <mxPoint x="762" y="224" as="targetPoint" />
          </mxGeometry>
        </mxCell>
        <mxCell id="nNDHWYNQJszgNGWnwx3n-237" value="" style="endArrow=none;html=1;rounded=0;entryX=0;entryY=0.5;entryDx=0;entryDy=0;exitX=1;exitY=0.25;exitDx=0;exitDy=0;" parent="1" source="nNDHWYNQJszgNGWnwx3n-190" target="nNDHWYNQJszgNGWnwx3n-233" edge="1">
          <mxGeometry width="50" height="50" relative="1" as="geometry">
            <mxPoint x="712" y="298" as="sourcePoint" />
            <mxPoint x="762" y="248" as="targetPoint" />
          </mxGeometry>
        </mxCell>
        <mxCell id="nNDHWYNQJszgNGWnwx3n-240" value="" style="endArrow=none;html=1;rounded=0;entryX=0;entryY=1;entryDx=0;entryDy=0;exitX=1;exitY=0;exitDx=0;exitDy=0;" parent="1" source="nNDHWYNQJszgNGWnwx3n-59" target="nNDHWYNQJszgNGWnwx3n-53" edge="1">
          <mxGeometry width="50" height="50" relative="1" as="geometry">
            <mxPoint x="872" y="650" as="sourcePoint" />
            <mxPoint x="922" y="600" as="targetPoint" />
          </mxGeometry>
        </mxCell>
        <mxCell id="nNDHWYNQJszgNGWnwx3n-241" value="&lt;font style=&quot;font-size: 18px;&quot;&gt;pontuacao&lt;/font&gt;" style="ellipse;whiteSpace=wrap;html=1;" parent="1" vertex="1">
          <mxGeometry x="600" y="640" width="120" height="50" as="geometry" />
        </mxCell>
        <mxCell id="nNDHWYNQJszgNGWnwx3n-242" value="" style="endArrow=none;html=1;rounded=0;entryX=1;entryY=0.5;entryDx=0;entryDy=0;exitX=0;exitY=0.5;exitDx=0;exitDy=0;" parent="1" source="nNDHWYNQJszgNGWnwx3n-59" target="nNDHWYNQJszgNGWnwx3n-241" edge="1">
          <mxGeometry width="50" height="50" relative="1" as="geometry">
            <mxPoint x="872" y="650" as="sourcePoint" />
            <mxPoint x="922" y="600" as="targetPoint" />
          </mxGeometry>
        </mxCell>
        <mxCell id="nNDHWYNQJszgNGWnwx3n-244" value="" style="shape=link;html=1;rounded=0;exitX=1;exitY=0.5;exitDx=0;exitDy=0;entryX=0;entryY=0.5;entryDx=0;entryDy=0;" parent="1" source="nNDHWYNQJszgNGWnwx3n-59" target="nNDHWYNQJszgNGWnwx3n-79" edge="1">
          <mxGeometry width="100" relative="1" as="geometry">
            <mxPoint x="1072" y="600" as="sourcePoint" />
            <mxPoint x="1172" y="600" as="targetPoint" />
          </mxGeometry>
        </mxCell>
        <mxCell id="nNDHWYNQJszgNGWnwx3n-245" value="" style="endArrow=none;html=1;rounded=0;entryX=0.25;entryY=1;entryDx=0;entryDy=0;exitX=0.5;exitY=0;exitDx=0;exitDy=0;" parent="1" source="nNDHWYNQJszgNGWnwx3n-79" target="nNDHWYNQJszgNGWnwx3n-42" edge="1">
          <mxGeometry width="50" height="50" relative="1" as="geometry">
            <mxPoint x="984" y="770" as="sourcePoint" />
            <mxPoint x="1034" y="720" as="targetPoint" />
          </mxGeometry>
        </mxCell>
        <mxCell id="nNDHWYNQJszgNGWnwx3n-246" value="" style="endArrow=none;html=1;rounded=0;exitX=1;exitY=0.5;exitDx=0;exitDy=0;entryX=0.639;entryY=0.981;entryDx=0;entryDy=0;entryPerimeter=0;" parent="1" source="nNDHWYNQJszgNGWnwx3n-85" target="nNDHWYNQJszgNGWnwx3n-42" edge="1">
          <mxGeometry width="50" height="50" relative="1" as="geometry">
            <mxPoint x="1032" y="770" as="sourcePoint" />
            <mxPoint x="1352" y="728" as="targetPoint" />
            <Array as="points">
              <mxPoint x="1248" y="832" />
            </Array>
          </mxGeometry>
        </mxCell>
        <mxCell id="nNDHWYNQJszgNGWnwx3n-251" value="" style="endArrow=none;html=1;rounded=0;exitX=1;exitY=0.25;exitDx=0;exitDy=0;" parent="1" source="nNDHWYNQJszgNGWnwx3n-1" edge="1">
          <mxGeometry width="50" height="50" relative="1" as="geometry">
            <mxPoint x="728" y="514" as="sourcePoint" />
            <mxPoint x="704" y="336" as="targetPoint" />
            <Array as="points">
              <mxPoint x="704" y="480" />
            </Array>
          </mxGeometry>
        </mxCell>
        <mxCell id="nNDHWYNQJszgNGWnwx3n-254" value="" style="rounded=0;whiteSpace=wrap;html=1;" parent="1" vertex="1">
          <mxGeometry x="1156" y="216" width="160" height="80" as="geometry" />
        </mxCell>
        <mxCell id="nNDHWYNQJszgNGWnwx3n-255" value="&lt;font style=&quot;font-size: 22px;&quot;&gt;Estatistica&lt;/font&gt;" style="text;html=1;strokeColor=none;fillColor=none;align=center;verticalAlign=middle;whiteSpace=wrap;rounded=0;" parent="1" vertex="1">
          <mxGeometry x="1196" y="236" width="80" height="40" as="geometry" />
        </mxCell>
        <mxCell id="nNDHWYNQJszgNGWnwx3n-258" value="" style="rhombus;whiteSpace=wrap;html=1;" parent="1" vertex="1">
          <mxGeometry x="1231" y="370" width="40" height="45" as="geometry" />
        </mxCell>
        <mxCell id="nNDHWYNQJszgNGWnwx3n-259" value="N" style="text;html=1;strokeColor=none;fillColor=none;align=center;verticalAlign=middle;whiteSpace=wrap;rounded=0;" parent="1" vertex="1">
          <mxGeometry x="1206" y="400" width="60" height="30" as="geometry" />
        </mxCell>
        <mxCell id="nNDHWYNQJszgNGWnwx3n-260" value="N" style="text;html=1;strokeColor=none;fillColor=none;align=center;verticalAlign=middle;whiteSpace=wrap;rounded=0;" parent="1" vertex="1">
          <mxGeometry x="1206" y="355" width="60" height="30" as="geometry" />
        </mxCell>
        <mxCell id="nNDHWYNQJszgNGWnwx3n-261" value="" style="endArrow=none;html=1;rounded=0;entryX=0.5;entryY=1;entryDx=0;entryDy=0;exitX=0.654;exitY=0.005;exitDx=0;exitDy=0;exitPerimeter=0;" parent="1" source="nNDHWYNQJszgNGWnwx3n-42" target="nNDHWYNQJszgNGWnwx3n-258" edge="1">
          <mxGeometry width="50" height="50" relative="1" as="geometry">
            <mxPoint x="1248" y="456" as="sourcePoint" />
            <mxPoint x="1248" y="432" as="targetPoint" />
          </mxGeometry>
        </mxCell>
        <mxCell id="nNDHWYNQJszgNGWnwx3n-263" value="&lt;span style=&quot;font-size: 18px;&quot;&gt;num_jogadores&lt;/span&gt;" style="ellipse;whiteSpace=wrap;html=1;" parent="1" vertex="1">
          <mxGeometry x="1316" y="367" width="136" height="50" as="geometry" />
        </mxCell>
        <mxCell id="nNDHWYNQJszgNGWnwx3n-264" value="" style="endArrow=none;html=1;rounded=0;entryX=0;entryY=0.5;entryDx=0;entryDy=0;exitX=1;exitY=0.5;exitDx=0;exitDy=0;" parent="1" source="nNDHWYNQJszgNGWnwx3n-258" target="nNDHWYNQJszgNGWnwx3n-263" edge="1">
          <mxGeometry width="50" height="50" relative="1" as="geometry">
            <mxPoint x="1220" y="419" as="sourcePoint" />
            <mxPoint x="1270" y="369" as="targetPoint" />
          </mxGeometry>
        </mxCell>
        <mxCell id="nNDHWYNQJszgNGWnwx3n-265" value="" style="endArrow=none;html=1;rounded=0;exitX=-0.005;exitY=0.468;exitDx=0;exitDy=0;entryX=1;entryY=0.5;entryDx=0;entryDy=0;exitPerimeter=0;" parent="1" source="nNDHWYNQJszgNGWnwx3n-254" target="nNDHWYNQJszgNGWnwx3n-171" edge="1">
          <mxGeometry width="50" height="50" relative="1" as="geometry">
            <mxPoint x="1032" y="466" as="sourcePoint" />
            <mxPoint x="864" y="320" as="targetPoint" />
          </mxGeometry>
        </mxCell>
        <mxCell id="nNDHWYNQJszgNGWnwx3n-266" value="&lt;span style=&quot;font-size: 18px;&quot;&gt;total_pontos&lt;/span&gt;" style="ellipse;whiteSpace=wrap;html=1;" parent="1" vertex="1">
          <mxGeometry x="1190" y="120" width="136" height="50" as="geometry" />
        </mxCell>
        <mxCell id="nNDHWYNQJszgNGWnwx3n-267" value="&lt;span style=&quot;font-size: 18px;&quot;&gt;num_partidas&lt;/span&gt;" style="ellipse;whiteSpace=wrap;html=1;" parent="1" vertex="1">
          <mxGeometry x="1332" y="170" width="136" height="50" as="geometry" />
        </mxCell>
        <mxCell id="nNDHWYNQJszgNGWnwx3n-268" value="" style="endArrow=none;html=1;rounded=0;exitX=0.5;exitY=0;exitDx=0;exitDy=0;entryX=0.5;entryY=1;entryDx=0;entryDy=0;" parent="1" source="nNDHWYNQJszgNGWnwx3n-254" target="nNDHWYNQJszgNGWnwx3n-266" edge="1">
          <mxGeometry width="50" height="50" relative="1" as="geometry">
            <mxPoint x="1188" y="280" as="sourcePoint" />
            <mxPoint x="1238" y="230" as="targetPoint" />
          </mxGeometry>
        </mxCell>
        <mxCell id="nNDHWYNQJszgNGWnwx3n-269" value="" style="endArrow=none;html=1;rounded=0;entryX=0;entryY=1;entryDx=0;entryDy=0;exitX=1;exitY=0.25;exitDx=0;exitDy=0;" parent="1" source="nNDHWYNQJszgNGWnwx3n-254" target="nNDHWYNQJszgNGWnwx3n-267" edge="1">
          <mxGeometry width="50" height="50" relative="1" as="geometry">
            <mxPoint x="1188" y="280" as="sourcePoint" />
            <mxPoint x="1238" y="230" as="targetPoint" />
          </mxGeometry>
        </mxCell>
        <mxCell id="nNDHWYNQJszgNGWnwx3n-270" value="" style="shape=link;html=1;rounded=0;exitX=0.475;exitY=0.991;exitDx=0;exitDy=0;exitPerimeter=0;entryX=0;entryY=0.5;entryDx=0;entryDy=0;" parent="1" source="nNDHWYNQJszgNGWnwx3n-180" target="nNDHWYNQJszgNGWnwx3n-183" edge="1">
          <mxGeometry width="100" relative="1" as="geometry">
            <mxPoint x="392" y="392" as="sourcePoint" />
            <mxPoint x="492" y="392" as="targetPoint" />
            <Array as="points">
              <mxPoint x="342" y="392" />
            </Array>
          </mxGeometry>
        </mxCell>
        <mxCell id="nNDHWYNQJszgNGWnwx3n-271" value="" style="shape=link;html=1;rounded=0;exitX=1;exitY=0.5;exitDx=0;exitDy=0;entryX=-0.001;entryY=0.452;entryDx=0;entryDy=0;entryPerimeter=0;" parent="1" source="nNDHWYNQJszgNGWnwx3n-94" target="nNDHWYNQJszgNGWnwx3n-83" edge="1">
          <mxGeometry width="100" relative="1" as="geometry">
            <mxPoint x="640" y="1006" as="sourcePoint" />
            <mxPoint x="744" y="1002" as="targetPoint" />
          </mxGeometry>
        </mxCell>
        <mxCell id="nNDHWYNQJszgNGWnwx3n-272" value="" style="endArrow=none;html=1;rounded=0;exitX=0.476;exitY=-0.006;exitDx=0;exitDy=0;exitPerimeter=0;entryX=0.5;entryY=1;entryDx=0;entryDy=0;" parent="1" source="nNDHWYNQJszgNGWnwx3n-59" target="nNDHWYNQJszgNGWnwx3n-67" edge="1">
          <mxGeometry width="50" height="50" relative="1" as="geometry">
            <mxPoint x="776" y="650" as="sourcePoint" />
            <mxPoint x="852" y="600" as="targetPoint" />
          </mxGeometry>
        </mxCell>
        <mxCell id="a_HjlP1dEtBzaq07qkkL-1" value="" style="shape=link;html=1;rounded=0;exitX=1;exitY=0.5;exitDx=0;exitDy=0;entryX=0.5;entryY=0;entryDx=0;entryDy=0;" parent="1" source="nNDHWYNQJszgNGWnwx3n-180" target="nNDHWYNQJszgNGWnwx3n-202" edge="1">
          <mxGeometry width="100" relative="1" as="geometry">
            <mxPoint x="536" y="240" as="sourcePoint" />
            <mxPoint x="636" y="240" as="targetPoint" />
          </mxGeometry>
        </mxCell>
        <mxCell id="wpG__1z-2G5s4aD70BQc-1" value="" style="endArrow=none;html=1;rounded=0;exitX=1;exitY=0;exitDx=0;exitDy=0;entryX=0.369;entryY=0.976;entryDx=0;entryDy=0;entryPerimeter=0;" parent="1" source="nNDHWYNQJszgNGWnwx3n-94" target="nNDHWYNQJszgNGWnwx3n-102" edge="1">
          <mxGeometry width="50" height="50" relative="1" as="geometry">
            <mxPoint x="752" y="882" as="sourcePoint" />
            <mxPoint x="802" y="832" as="targetPoint" />
          </mxGeometry>
        </mxCell>
        <mxCell id="hNQSx2w98ENypiFN29dy-5" value="" style="endArrow=none;html=1;rounded=0;entryX=0.587;entryY=0.998;entryDx=0;entryDy=0;entryPerimeter=0;exitX=0.5;exitY=0;exitDx=0;exitDy=0;" parent="1" source="nNDHWYNQJszgNGWnwx3n-258" target="nNDHWYNQJszgNGWnwx3n-254" edge="1">
          <mxGeometry width="50" height="50" relative="1" as="geometry">
            <mxPoint x="1280" y="344" as="sourcePoint" />
            <mxPoint x="1314" y="304" as="targetPoint" />
          </mxGeometry>
        </mxCell>
        <mxCell id="hNQSx2w98ENypiFN29dy-7" value="" style="endArrow=none;html=1;rounded=0;entryX=0.5;entryY=1;entryDx=0;entryDy=0;" parent="1" target="nNDHWYNQJszgNGWnwx3n-171" edge="1">
          <mxGeometry width="50" height="50" relative="1" as="geometry">
            <mxPoint x="704" y="336" as="sourcePoint" />
            <mxPoint x="848" y="288" as="targetPoint" />
            <Array as="points">
              <mxPoint x="840" y="336" />
            </Array>
          </mxGeometry>
        </mxCell>
        <mxCell id="hNQSx2w98ENypiFN29dy-8" value="" style="rounded=0;whiteSpace=wrap;html=1;" parent="1" vertex="1">
          <mxGeometry x="808" y="450" width="160" height="80" as="geometry" />
        </mxCell>
        <mxCell id="hNQSx2w98ENypiFN29dy-9" value="&lt;font style=&quot;font-size: 22px;&quot;&gt;Compra&lt;/font&gt;" style="text;html=1;strokeColor=none;fillColor=none;align=center;verticalAlign=middle;whiteSpace=wrap;rounded=0;" parent="1" vertex="1">
          <mxGeometry x="848" y="470" width="80" height="40" as="geometry" />
        </mxCell>
        <mxCell id="hNQSx2w98ENypiFN29dy-10" value="&lt;font style=&quot;font-size: 18px;&quot;&gt;&lt;u&gt;id&lt;/u&gt;&lt;/font&gt;" style="ellipse;whiteSpace=wrap;html=1;" parent="1" vertex="1">
          <mxGeometry x="716" y="380" width="120" height="50" as="geometry" />
        </mxCell>
        <mxCell id="hNQSx2w98ENypiFN29dy-11" value="" style="endArrow=none;html=1;rounded=0;entryX=0.766;entryY=0.924;entryDx=0;entryDy=0;entryPerimeter=0;exitX=0.184;exitY=-0.003;exitDx=0;exitDy=0;exitPerimeter=0;" parent="1" source="hNQSx2w98ENypiFN29dy-8" target="hNQSx2w98ENypiFN29dy-10" edge="1">
          <mxGeometry width="50" height="50" relative="1" as="geometry">
            <mxPoint x="840" y="448" as="sourcePoint" />
            <mxPoint x="938" y="440" as="targetPoint" />
          </mxGeometry>
        </mxCell>
        <mxCell id="hNQSx2w98ENypiFN29dy-12" value="" style="rhombus;whiteSpace=wrap;html=1;" parent="1" vertex="1">
          <mxGeometry x="1031" y="477.5" width="40" height="45" as="geometry" />
        </mxCell>
        <mxCell id="hNQSx2w98ENypiFN29dy-13" value="N" style="text;html=1;strokeColor=none;fillColor=none;align=center;verticalAlign=middle;whiteSpace=wrap;rounded=0;" parent="1" vertex="1">
          <mxGeometry x="1001" y="502.5" width="60" height="30" as="geometry" />
        </mxCell>
        <mxCell id="hNQSx2w98ENypiFN29dy-14" value="1" style="text;html=1;strokeColor=none;fillColor=none;align=center;verticalAlign=middle;whiteSpace=wrap;rounded=0;" parent="1" vertex="1">
          <mxGeometry x="1040" y="502.5" width="60" height="30" as="geometry" />
        </mxCell>
        <mxCell id="hNQSx2w98ENypiFN29dy-16" value="" style="rhombus;whiteSpace=wrap;html=1;" parent="1" vertex="1">
          <mxGeometry x="706" y="477.5" width="40" height="45" as="geometry" />
        </mxCell>
        <mxCell id="hNQSx2w98ENypiFN29dy-17" value="1" style="text;html=1;strokeColor=none;fillColor=none;align=center;verticalAlign=middle;whiteSpace=wrap;rounded=0;" parent="1" vertex="1">
          <mxGeometry x="676" y="500" width="60" height="30" as="geometry" />
        </mxCell>
        <mxCell id="hNQSx2w98ENypiFN29dy-18" value="N" style="text;html=1;strokeColor=none;fillColor=none;align=center;verticalAlign=middle;whiteSpace=wrap;rounded=0;" parent="1" vertex="1">
          <mxGeometry x="716" y="500" width="60" height="30" as="geometry" />
        </mxCell>
        <mxCell id="hNQSx2w98ENypiFN29dy-20" value="" style="shape=link;html=1;rounded=0;entryX=0;entryY=0.5;entryDx=0;entryDy=0;" parent="1" target="hNQSx2w98ENypiFN29dy-12" edge="1">
          <mxGeometry width="100" relative="1" as="geometry">
            <mxPoint x="968" y="500" as="sourcePoint" />
            <mxPoint x="1004" y="488" as="targetPoint" />
          </mxGeometry>
        </mxCell>
        <mxCell id="hNQSx2w98ENypiFN29dy-21" value="" style="shape=link;html=1;rounded=0;exitX=0.5;exitY=0;exitDx=0;exitDy=0;entryX=-0.002;entryY=0.626;entryDx=0;entryDy=0;entryPerimeter=0;" parent="1" source="hNQSx2w98ENypiFN29dy-18" target="hNQSx2w98ENypiFN29dy-8" edge="1">
          <mxGeometry width="100" relative="1" as="geometry">
            <mxPoint x="736" y="504" as="sourcePoint" />
            <mxPoint x="836" y="504" as="targetPoint" />
          </mxGeometry>
        </mxCell>
      </root>
    </mxGraphModel>
  </diagram>
</mxfile>
